<svg xmlns="http://www.w3.org/2000/svg" width="960" height="540" viewBox="0 0 960 540" role="img" aria-label="Miniatura ilustrativa">
<defs><radialGradient id="g" cx="35%" cy="-6%" r="75%"><stop offset="0" stop-color="#7CB8EF" stop-opacity=".2"/><stop offset="1" stop-color="#7CB8EF" stop-opacity="0"/></radialGradient></defs>
<rect width="960" height="540" fill="#0b1233"/><rect width="960" height="540" fill="url(#g)"/>
<path d="M239 130 H459 Q489 130 489 160 V420 Q489 450 459 450 H239 Z" fill="#7CB8EF" opacity=".2" stroke="#7CB8EF" stroke-width="3"/><path d="M489 160 Q489 130 519 130 H739 V450 H519 Q489 450 489 420" fill="none" stroke="#7CB8EF" stroke-width="3"/><rect x="275" y="180" width="150" height="14" rx="7" fill="#7CB8EF" opacity=".7"/><rect x="275" y="214" width="170" height="10" rx="5" fill="#7CB8EF" opacity=".4"/><rect x="275" y="240" width="130" height="10" rx="5" fill="#7CB8EF" opacity=".4"/><rect x="529" y="180" width="170" height="10" rx="5" fill="#7CB8EF" opacity=".4"/><rect x="529" y="206" width="140" height="10" rx="5" fill="#7CB8EF" opacity=".4"/><circle cx="614" cy="350" r="40" fill="none" stroke="#7CB8EF" stroke-width="4"/><path d="M594 350 L610 366 L637 336" fill="none" stroke="#7CB8EF" stroke-width="6" stroke-linecap="round" stroke-linejoin="round"/>
</svg>
