<svg xmlns="http://www.w3.org/2000/svg" width="960" height="540" viewBox="0 0 960 540" role="img" aria-label="Miniatura ilustrativa">
<defs><radialGradient id="g" cx="74%" cy="52%" r="75%"><stop offset="0" stop-color="#EBC17A" stop-opacity=".2"/><stop offset="1" stop-color="#EBC17A" stop-opacity="0"/></radialGradient></defs>
<rect width="960" height="540" fill="#0b1233"/><rect width="960" height="540" fill="url(#g)"/>
<path d="M268 130 H488 Q518 130 518 160 V420 Q518 450 488 450 H268 Z" fill="#EBC17A" opacity=".2" stroke="#EBC17A" stroke-width="3"/><path d="M518 160 Q518 130 548 130 H768 V450 H548 Q518 450 518 420" fill="none" stroke="#EBC17A" stroke-width="3"/><rect x="304" y="180" width="150" height="14" rx="7" fill="#EBC17A" opacity=".7"/><rect x="304" y="214" width="170" height="10" rx="5" fill="#EBC17A" opacity=".4"/><rect x="304" y="240" width="130" height="10" rx="5" fill="#EBC17A" opacity=".4"/><rect x="558" y="180" width="170" height="10" rx="5" fill="#EBC17A" opacity=".4"/><rect x="558" y="206" width="140" height="10" rx="5" fill="#EBC17A" opacity=".4"/><circle cx="643" cy="350" r="40" fill="none" stroke="#EBC17A" stroke-width="4"/><path d="M623 350 L639 366 L666 336" fill="none" stroke="#EBC17A" stroke-width="6" stroke-linecap="round" stroke-linejoin="round"/>
</svg>
